<svg aria-hidden="true" style="position: absolute; width: 0; height: 0; overflow: hidden;" version="1.1" xmlns="http://www.w3.org/2000/svg" xmlns:xlink="http://www.w3.org/1999/xlink">
<defs>
<symbol id="icon-shield" viewBox="0 0 32 32">
<path fill="#d0cfce" style="fill: var(--color1, #d0cfce)" d="M15.995 4.847c-4.909 0-8.889 1.99-8.889 4.444l0.012 0.122c1.312 13.569 8.3 17.363 8.844 17.639l0.034 0.017c0 0 7.556-3.556 8.889-17.778 0.229-2.444-3.98-4.444-8.889-4.444zM15.996 24.393l-0.027-0.013c-0.435-0.22-6.019-3.252-7.067-14.095l-0.009-0.098c0-1.961 3.18-3.552 7.103-3.552s7.286 1.599 7.103 3.552c-1.065 11.365-7.103 14.206-7.103 14.206z"></path>
<path fill="#fff" style="fill: var(--color2, #fff)" d="M15.556 7.958l1.333 1.778-1.333 1.778 1.333 1.778-1.333 1.778 1.333 1.778-1.333 1.778 1.333 1.778-1.333 1.778 0.444 2.338c0 0-6.667-4.889-7.111-14.222 0 0 0-3.556 7.111-3.556l-0.444 1.218z"></path>
<path fill="#d22f27" style="fill: var(--color3, #d22f27)" d="M16 6.74l-0.444 1.218 1.333 1.778-1.333 1.778 1.333 1.778-1.333 1.778 1.333 1.778-1.333 1.778 1.333 1.778-1.333 1.778 0.445 2.212c0 0 6.153-3.981 7.103-14.206 0 0-0.37-3.098-7.104-3.446z"></path>
</symbol>
<symbol id="icon-thunder" viewBox="0 0 32 32">
<path fill="#fddf7f" style="fill: var(--color4, #fddf7f)" d="M27.133 13.325h-8.554l6.313-12.687h-11.133l-7.519 15.11h6.397l-7.77 15.616z"></path>
<path fill="#000" style="fill: var(--color5, #000)" d="M4.867 32c-0.141 0-0.282-0.047-0.399-0.14-0.234-0.188-0.306-0.513-0.172-0.781l7.312-14.694h-5.368c-0.221 0-0.426-0.114-0.542-0.302s-0.127-0.422-0.029-0.62l7.519-15.11c0.108-0.216 0.329-0.353 0.571-0.353h11.133c0.221 0 0.426 0.114 0.542 0.302s0.127 0.422 0.029 0.62l-5.855 11.766h7.525c0.27 0 0.511 0.17 0.601 0.425s0.010 0.538-0.2 0.708l-22.267 18.038c-0.117 0.095-0.259 0.142-0.401 0.142zM7.269 15.11h5.368c0.221 0 0.426 0.114 0.542 0.302s0.127 0.422 0.029 0.62l-6.464 12.991 18.59-15.060h-6.755c-0.221 0-0.426-0.114-0.542-0.302s-0.127-0.422-0.029-0.62l5.855-11.766h-9.709l-6.884 13.835z"></path>
<path fill="#000" style="fill: var(--color5, #000)" d="M20.973 16.354c-0.186 0-0.37-0.081-0.496-0.236-0.222-0.274-0.179-0.675 0.094-0.897l0.446-0.361c0.274-0.222 0.675-0.18 0.897 0.094s0.179 0.675-0.094 0.897l-0.446 0.361c-0.118 0.096-0.26 0.142-0.401 0.142z"></path>
<path fill="#000" style="fill: var(--color5, #000)" d="M15.586 20.717c-0.186 0-0.37-0.081-0.496-0.236-0.222-0.273-0.179-0.675 0.094-0.897l3.857-3.124c0.274-0.222 0.675-0.18 0.897 0.094s0.179 0.675-0.094 0.897l-3.857 3.124c-0.118 0.096-0.26 0.142-0.401 0.142z"></path>
</symbol>
<symbol id="icon-notepad" viewBox="0 0 32 32">
<path fill="#e1c3a0" style="fill: var(--color6, #e1c3a0)" d="M20.979 2.463l5.007-0.009c1.102-0.002 2.004 0.897 2.006 1.999l0.047 25.034c0.002 1.102-0.898 2.004-1.999 2.006l-20.027 0.038c-1.101 0.002-2.004-0.898-2.006-1.999l-0.047-25.034c-0.002-1.101 0.897-2.004 1.999-2.006l5.007-0.009z"></path>
<path fill="#eff2fa" style="fill: var(--color7, #eff2fa)" d="M22.986 4.462l3.004-0.006 0.047 25.034-20.027 0.038-0.047-25.034 3.004-0.006z"></path>
<path fill="#c7cfe2" style="fill: var(--color8, #c7cfe2)" d="M18.975 1.465l-1.594 0.003c-0.208-0.582-0.759-1-1.412-0.999s-1.202 0.422-1.408 1.004l-1.594 0.003c-1.106 0.002-2.001 0.9-1.999 2.006l0.004 2.003 10.014-0.019-0.004-2.003c-0.002-1.106-0.9-2.001-2.006-1.999z"></path>
<path fill="#afb9d2" style="fill: var(--color9, #afb9d2)" d="M10.969 3.943h10.014v1.533h-10.014v-1.533z"></path>
<path fill="#000" style="fill: var(--color5, #000)" d="M28.462 4.451c-0.003-1.362-1.111-2.467-2.472-2.467-0.002 0-0.003 0-0.005 0l-5.007 0.009c-0.006 0-0.011 0.001-0.017 0.001-0.452-0.605-1.174-0.999-1.987-0.999l-1.294 0.002c-0.346-0.608-0.997-0.998-1.712-0.998-0.713 0.001-1.364 0.394-1.708 1.005l-1.294 0.002c-0.66 0.001-1.281 0.26-1.747 0.727-0.087 0.088-0.167 0.181-0.24 0.278-0.005-0-0.009-0.001-0.014-0.001-0 0-0.001 0-0.001 0l-5.007 0.009c-0.658 0.001-1.278 0.26-1.745 0.729s-0.724 1.090-0.723 1.748l0.047 25.034c0.001 0.658 0.26 1.278 0.729 1.745 0.468 0.466 1.087 0.723 1.743 0.723 0.002 0 0.003 0 0.005 0l20.027-0.038c1.363-0.003 2.47-1.114 2.468-2.477l-0.047-25.034zM11.884 2.397c0.289-0.29 0.674-0.45 1.083-0.451l1.594-0.003c0.199-0 0.376-0.126 0.442-0.313 0.146-0.412 0.534-0.69 0.969-0.691 0.431 0 0.82 0.276 0.967 0.687 0.067 0.187 0.244 0.311 0.442 0.311 0 0 0.001 0 0.001 0l1.597-0.003c0.844 0 1.532 0.687 1.533 1.53l0.003 1.533-9.075 0.017-0.003-1.533c-0.001-0.41 0.158-0.795 0.447-1.085zM26.040 31.024l-20.027 0.038c-0.409-0-0.792-0.159-1.083-0.449s-0.452-0.674-0.453-1.082l-0.047-25.034c-0.001-0.407 0.159-0.792 0.449-1.083s0.674-0.452 1.082-0.453l4.595-0.009c-0.037 0.173-0.057 0.351-0.057 0.532l0.004 2.003c0.001 0.259 0.211 0.468 0.469 0.468 0 0 0.001 0 0.001 0l10.014-0.019c0.259-0 0.469-0.211 0.468-0.47l-0.004-2.003c-0-0.183-0.021-0.36-0.059-0.532l4.596-0.009c0.001 0 0.002 0 0.003 0 0.844 0 1.532 0.686 1.533 1.53l0.047 25.034c0.002 0.845-0.685 1.535-1.531 1.536z"></path>
<path fill="#000" style="fill: var(--color5, #000)" d="M25.99 3.987c-0 0-0.001 0-0.001 0l-3.004 0.006c-0.259 0.001-0.469 0.211-0.468 0.47s0.211 0.468 0.469 0.468c0 0 0.001 0 0.001 0l2.535-0.005 0.045 24.095-19.089 0.036-0.045-24.096 2.535-0.005c0.259-0 0.469-0.211 0.469-0.47s-0.211-0.468-0.469-0.468c-0 0-0.001 0-0.001 0l-3.004 0.006c-0.125 0-0.244 0.050-0.332 0.138s-0.137 0.208-0.137 0.332l0.047 25.034c0 0.125 0.050 0.244 0.138 0.332s0.207 0.137 0.331 0.137c0 0 0.001 0 0.001 0l20.027-0.038c0.125-0 0.244-0.050 0.332-0.138s0.137-0.208 0.137-0.332l-0.047-25.034c-0-0.259-0.21-0.468-0.469-0.468z"></path>
<path fill="#000" style="fill: var(--color5, #000)" d="M15.973 2.942c0.123 0 0.245-0.050 0.332-0.138s0.138-0.208 0.138-0.332c0-0.124-0.050-0.245-0.138-0.332s-0.208-0.137-0.332-0.137c-0.123 0-0.245 0.050-0.332 0.137s-0.138 0.208-0.138 0.332c0 0.123 0.050 0.245 0.138 0.332s0.208 0.138 0.332 0.138z"></path>
<path fill="#000" style="fill: var(--color5, #000)" d="M8.148 11.668c-0.183 0.184-0.182 0.481 0.001 0.664l1.505 1.499c0.088 0.088 0.207 0.137 0.331 0.137 0 0 0.001 0 0.001 0 0.124-0 0.244-0.050 0.332-0.138l2.499-2.508c0.183-0.184 0.182-0.481-0.001-0.664s-0.481-0.182-0.664 0.001l-2.167 2.176-1.172-1.168c-0.184-0.183-0.481-0.182-0.664 0.001z"></path>
<path fill="#000" style="fill: var(--color5, #000)" d="M12.162 16.167l-2.167 2.176-1.172-1.168c-0.184-0.183-0.481-0.182-0.664 0.001s-0.182 0.481 0.001 0.664l1.505 1.499c0.092 0.091 0.211 0.137 0.331 0.137s0.241-0.046 0.332-0.138l2.499-2.508c0.183-0.184 0.182-0.481-0.001-0.664s-0.481-0.182-0.664 0.001z"></path>
<path fill="#000" style="fill: var(--color5, #000)" d="M12.172 21.674l-2.167 2.176-1.172-1.168c-0.184-0.183-0.481-0.183-0.664 0.001s-0.182 0.481 0.001 0.664l1.505 1.499c0.088 0.088 0.207 0.137 0.331 0.137 0 0 0.001 0 0.001 0 0.124-0 0.244-0.050 0.332-0.138l2.499-2.508c0.183-0.184 0.182-0.481-0.001-0.664s-0.481-0.182-0.664 0.001z"></path>
<path fill="#000" style="fill: var(--color5, #000)" d="M14.989 12.456c0 0 0.001 0 0.001 0l8.512-0.016c0.259-0.001 0.469-0.211 0.468-0.47s-0.211-0.469-0.469-0.469c-0 0-0.001 0-0.001 0l-8.512 0.016c-0.259 0.001-0.469 0.211-0.469 0.47s0.211 0.469 0.469 0.469z"></path>
<path fill="#000" style="fill: var(--color5, #000)" d="M23.511 17.009c-0 0-0.001 0-0.001 0l-8.512 0.016c-0.259 0-0.469 0.211-0.469 0.47s0.211 0.468 0.469 0.468c0 0 0.001 0 0.001 0l8.512-0.016c0.259-0 0.469-0.211 0.468-0.47s-0.211-0.468-0.469-0.468z"></path>
<path fill="#000" style="fill: var(--color5, #000)" d="M23.521 22.517l-8.512 0.016c-0.259 0-0.469 0.211-0.469 0.47s0.211 0.468 0.469 0.468c0 0 0.001 0 0.001 0l8.512-0.016c0.259-0 0.469-0.211 0.468-0.47s-0.211-0.468-0.469-0.468c-0 0-0.001 0-0.001 0z"></path>
</symbol>
</defs>
</svg>
